<svg xmlns="http://www.w3.org/2000/svg" viewBox="0 0 400 400" fill="none">
  <defs>
    <linearGradient id="t1" x1="0" y1="0" x2="1" y2="1"><stop offset="0%" stop-color="#9DC4FF"/><stop offset="100%" stop-color="#5B8DE0"/></linearGradient>
    <linearGradient id="f1" x1="0" y1="0" x2="0" y2="1"><stop offset="0%" stop-color="#4265B5"/><stop offset="100%" stop-color="#2E4990"/></linearGradient>
    <linearGradient id="s1" x1="0" y1="0" x2="0" y2="1"><stop offset="0%" stop-color="#6B9EE8"/><stop offset="100%" stop-color="#4A7ACC"/></linearGradient>

    <linearGradient id="t2" x1="0" y1="0" x2="1" y2="1"><stop offset="0%" stop-color="#8EE0A8"/><stop offset="100%" stop-color="#4CB880"/></linearGradient>
    <linearGradient id="f2" x1="0" y1="0" x2="0" y2="1"><stop offset="0%" stop-color="#36955E"/><stop offset="100%" stop-color="#256F43"/></linearGradient>
    <linearGradient id="s2" x1="0" y1="0" x2="0" y2="1"><stop offset="0%" stop-color="#5DC88C"/><stop offset="100%" stop-color="#3DA36B"/></linearGradient>

    <linearGradient id="t3" x1="0" y1="0" x2="1" y2="1"><stop offset="0%" stop-color="#FFB8AD"/><stop offset="100%" stop-color="#EE7B6F"/></linearGradient>
    <linearGradient id="f3" x1="0" y1="0" x2="0" y2="1"><stop offset="0%" stop-color="#CC5A4F"/><stop offset="100%" stop-color="#A84036"/></linearGradient>
    <linearGradient id="s3" x1="0" y1="0" x2="0" y2="1"><stop offset="0%" stop-color="#F08D82"/><stop offset="100%" stop-color="#D96458"/></linearGradient>

    <linearGradient id="t4" x1="0" y1="0" x2="1" y2="1"><stop offset="0%" stop-color="#CCB8F0"/><stop offset="100%" stop-color="#9B7ED8"/></linearGradient>
    <linearGradient id="f4" x1="0" y1="0" x2="0" y2="1"><stop offset="0%" stop-color="#7055B8"/><stop offset="100%" stop-color="#573E96"/></linearGradient>
    <linearGradient id="s4" x1="0" y1="0" x2="0" y2="1"><stop offset="0%" stop-color="#AA8EE0"/><stop offset="100%" stop-color="#7E5FC4"/></linearGradient>

    <filter id="barShadow" x="-20%" y="-20%" width="140%" height="140%">
      <feDropShadow dx="0" dy="8" stdDeviation="12" flood-color="#000" flood-opacity="0.08"/>
    </filter>
  </defs>

  <!-- 等距 3D 柱体 — stroke-width 8 + round-join = 3D 圆角效果 -->
  <g transform="translate(200,215)" filter="url(#barShadow)">

    <g transform="translate(-120,0)">
      <polygon points="0,-40 18,-50 50,-50 32,-40" fill="url(#t1)"
               stroke="#A0C8FF" stroke-width="8" stroke-linejoin="round"/>
      <polygon points="0,-40 32,-40 32,40 0,40" fill="url(#f1)"
               stroke="#4A6FB8" stroke-width="8" stroke-linejoin="round"/>
      <polygon points="32,-40 50,-50 50,30 32,40" fill="url(#s1)"
               stroke="#6B9EE8" stroke-width="8" stroke-linejoin="round"/>
    </g>

    <g transform="translate(-44,0)">
      <polygon points="0,-80 18,-90 50,-90 32,-80" fill="url(#t2)"
               stroke="#A0E8B8" stroke-width="8" stroke-linejoin="round"/>
      <polygon points="0,-80 32,-80 32,0 0,0" fill="url(#f2)"
               stroke="#2E8A50" stroke-width="8" stroke-linejoin="round"/>
      <polygon points="32,-80 50,-90 50,-10 32,0" fill="url(#s2)"
               stroke="#5DC88C" stroke-width="8" stroke-linejoin="round"/>
    </g>

    <g transform="translate(32,0)">
      <polygon points="0,-130 18,-140 50,-140 32,-130" fill="url(#t3)"
               stroke="#FFC8BE" stroke-width="8" stroke-linejoin="round"/>
      <polygon points="0,-130 32,-130 32,-50 0,-50" fill="url(#f3)"
               stroke="#C04840" stroke-width="8" stroke-linejoin="round"/>
      <polygon points="32,-130 50,-140 50,-60 32,-50" fill="url(#s3)"
               stroke="#F08D82" stroke-width="8" stroke-linejoin="round"/>
    </g>

    <g transform="translate(108,0)">
      <polygon points="0,-100 18,-110 50,-110 32,-100" fill="url(#t4)"
               stroke="#D8C8F5" stroke-width="8" stroke-linejoin="round"/>
      <polygon points="0,-100 32,-100 32,-20 0,-20" fill="url(#f4)"
               stroke="#6649A8" stroke-width="8" stroke-linejoin="round"/>
      <polygon points="32,-100 50,-110 50,-30 32,-20" fill="url(#s4)"
               stroke="#AA8EE0" stroke-width="8" stroke-linejoin="round"/>
    </g>
  </g>
</svg>
