<svg xmlns="http://www.w3.org/2000/svg" viewBox="0 0 500 120" fill="none">
  <defs>
    <linearGradient id="t1" x1="0" y1="0" x2="1" y2="1"><stop offset="0%" stop-color="#9DC4FF"/><stop offset="100%" stop-color="#5B8DE0"/></linearGradient>
    <linearGradient id="l1" x1="0" y1="0" x2="0" y2="1"><stop offset="0%" stop-color="#4265B5"/><stop offset="100%" stop-color="#2E4990"/></linearGradient>
    <linearGradient id="r1" x1="0" y1="0" x2="0" y2="1"><stop offset="0%" stop-color="#6B9EE8"/><stop offset="100%" stop-color="#4A7ACC"/></linearGradient>
    <linearGradient id="t2" x1="0" y1="0" x2="1" y2="1"><stop offset="0%" stop-color="#8EE0A8"/><stop offset="100%" stop-color="#4CB880"/></linearGradient>
    <linearGradient id="l2" x1="0" y1="0" x2="0" y2="1"><stop offset="0%" stop-color="#36955E"/><stop offset="100%" stop-color="#256F43"/></linearGradient>
    <linearGradient id="r2" x1="0" y1="0" x2="0" y2="1"><stop offset="0%" stop-color="#5DC88C"/><stop offset="100%" stop-color="#3DA36B"/></linearGradient>
    <linearGradient id="t3" x1="0" y1="0" x2="1" y2="1"><stop offset="0%" stop-color="#FFB8AD"/><stop offset="100%" stop-color="#EE7B6F"/></linearGradient>
    <linearGradient id="l3" x1="0" y1="0" x2="0" y2="1"><stop offset="0%" stop-color="#CC5A4F"/><stop offset="100%" stop-color="#A84036"/></linearGradient>
    <linearGradient id="r3" x1="0" y1="0" x2="0" y2="1"><stop offset="0%" stop-color="#F08D82"/><stop offset="100%" stop-color="#D96458"/></linearGradient>
    <linearGradient id="t4" x1="0" y1="0" x2="1" y2="1"><stop offset="0%" stop-color="#CCB8F0"/><stop offset="100%" stop-color="#9B7ED8"/></linearGradient>
    <linearGradient id="l4" x1="0" y1="0" x2="0" y2="1"><stop offset="0%" stop-color="#7055B8"/><stop offset="100%" stop-color="#573E96"/></linearGradient>
    <linearGradient id="r4" x1="0" y1="0" x2="0" y2="1"><stop offset="0%" stop-color="#AA8EE0"/><stop offset="100%" stop-color="#7E5FC4"/></linearGradient>
    <linearGradient id="cg" x1="0" y1="0" x2="1" y2="0"><stop offset="0%" stop-color="#5B8DE0" stop-opacity="0"/><stop offset="25%" stop-color="#EE7B6F" stop-opacity=".8"/><stop offset="55%" stop-color="#EE7B6F" stop-opacity="1"/><stop offset="80%" stop-color="#9B7ED8" stop-opacity=".8"/><stop offset="100%" stop-color="#9B7ED8" stop-opacity="0"/></linearGradient>
    <filter id="sh"><feDropShadow dx="0" dy="2" stdDeviation="4" flood-color="#000" flood-opacity=".06"/></filter>
    <filter id="gl"><feGaussianBlur stdDeviation="1.5" result="b"/><feMerge><feMergeNode in="b"/><feMergeNode in="SourceGraphic"/></feMerge></filter>
  </defs>

  <rect x="8" y="10" width="100" height="100" rx="20" fill="#FAFBFC" stroke="#EDEEF0" stroke-width="1" filter="url(#sh)"/>

  <g transform="translate(58,70)">
    <g transform="translate(11,0)">
      <polygon points="0,-56 7,-60 17,-60 10,-56" fill="url(#t3)"/>
      <polygon points="0,-56 10,-56 10,-24 0,-24" fill="url(#l3)"/>
      <polygon points="10,-56 17,-60 17,-28 10,-24" fill="url(#r3)"/>
    </g>
    <path d="M -46,12 C -33,0 -13,-33 18,-48 C 34,-53 43,-43 46,-22"
          fill="none" stroke="url(#cg)" stroke-width="1.8" stroke-linecap="round" filter="url(#gl)"/>
    <circle cx="-46" cy="12" r="1.5" fill="#5B8DE0" opacity=".3"/>
    <circle cx="46" cy="-22" r="1.5" fill="#9B7ED8" opacity=".3"/>
    <g transform="translate(-38,0)">
      <polygon points="0,-16 6,-19 17,-19 11,-16" fill="url(#t1)"/>
      <polygon points="0,-16 11,-16 11,14 0,14" fill="url(#l1)"/>
      <polygon points="11,-16 17,-19 17,-5 11,14" fill="url(#r1)"/>
    </g>
    <g transform="translate(-13,0)">
      <polygon points="0,-33 6,-36 17,-36 11,-33" fill="url(#t2)"/>
      <polygon points="0,-33 11,-33 11,-2 0,-2" fill="url(#l2)"/>
      <polygon points="11,-33 17,-36 17,-5 11,-2" fill="url(#r2)"/>
    </g>
    <g transform="translate(37,0)">
      <polygon points="0,-42 6,-45 17,-45 11,-42" fill="url(#t4)"/>
      <polygon points="0,-42 11,-42 11,-10 0,-10" fill="url(#l4)"/>
      <polygon points="11,-42 17,-45 17,-13 11,-10" fill="url(#r4)"/>
    </g>
  </g>

  <text x="124" y="66" dominant-baseline="middle"
        font-family="'Helvetica Neue',Helvetica,Arial,'PingFang SC','Microsoft YaHei',sans-serif"
        font-size="34" font-weight="700" fill="#1A1A1A" letter-spacing="1.5">anyvis</text>
</svg>
